<svg width="32" height="32" viewBox="0 0 32 32" fill="none" xmlns="http://www.w3.org/2000/svg">
<path d="M14.8502 20.4504V24.4411C9.92794 25.4176 4.9502 24.3004 4.9502 24.3004L8.92373 20.4504H14.8502Z" fill="#FFB468"/>
<path d="M22.2763 20.4504C21.7821 20.9323 21.1769 21.4592 20.4275 22.0456C19.4066 22.8438 18.2534 23.4252 17.0502 23.8471V20.4504H22.2763Z" fill="#FFB468"/>
<path fill-rule="evenodd" clip-rule="evenodd" d="M17.1716 12.2659C18.9755 10.4625 21.8904 10.4623 23.6942 12.2659C23.6942 12.2659 24.4094 12.9926 24.6954 14.2576L28.0502 15.5004L24.574 16.8206C24.4354 17.2934 24.2693 17.7577 24.0068 18.2504H17.0502V12.3873L17.1716 12.2659ZM22.2312 14.1909C21.8022 13.7623 21.0982 13.7623 20.6692 14.1909C20.2403 14.6199 20.2404 15.3131 20.6692 15.7421C21.0982 16.1711 21.8022 16.1711 22.2312 15.7421C22.66 15.3131 22.6601 14.6199 22.2312 14.1909Z" fill="#FFB468"/>
<path d="M14.8502 13.1586V18.2504H10.766C8.2026 14.751 7.17504 10.451 8.2502 6.15042L14.8502 13.1586Z" fill="#FFB468"/>
</svg>
